<svg width="719" height="719" viewBox="0 0 719 719" fill="none" xmlns="http://www.w3.org/2000/svg">
<g clip-path="url(#clip0_25_2)">
<rect width="719" height="719" rx="359.5" fill="#C6A0F6"/>
<mask id="mask0_25_2" style="mask-type:alpha" maskUnits="userSpaceOnUse" x="0" y="0" width="719" height="719">
<rect width="719" height="719" rx="359.5" fill="#8CAAEE"/>
</mask>
<g mask="url(#mask0_25_2)">
<path d="M564.906 323.536C564.906 324.783 564.579 326.021 563.833 327.021C560.859 331.01 556.916 333.48 553.02 335.981C490.72 375.97 427.879 415.092 365.08 454.28C319.681 482.609 274.209 510.819 228.781 539.1C209.823 550.902 190.892 562.75 171.715 574.855C171.345 575.089 170.919 575.223 170.481 575.242C167.501 575.369 164.575 575.429 161.675 575.388C160.225 575.368 157.828 570.044 158.449 568.734V568.734C182.95 517.006 207.389 465.249 231.936 413.544C260.893 352.549 289.921 291.588 318.961 230.634C328.616 210.37 338.412 190.175 348.126 169.94C352.99 159.809 361.564 153.094 369.866 146.149C372.379 144.046 375.539 144.655 378.496 144.783C397.27 145.596 413.68 151.944 427.311 165.286C432.775 170.635 438.942 175.253 444.552 180.461C447.317 183.029 449.827 183.219 453.116 181.696C477.833 170.257 502.593 158.911 527.357 147.575C529.46 146.612 531.726 144.412 534.006 146.524C535.981 148.354 534.353 150.764 533.77 152.84C526.394 179.114 519.08 205.407 511.467 231.613C510.266 235.745 512.295 237.453 514.886 239.439C525.556 247.622 536.016 256.061 546.275 264.767C553.926 271.26 559.273 279.305 563.982 288.304C564.457 289.21 564.706 290.217 564.723 291.24C564.896 302.027 564.905 312.584 564.906 323.536ZM426.782 193.434C435.392 189.172 436.875 183.302 429.771 177.361C421.062 170.078 412.19 162.87 402.31 157.113C399.37 155.4 396.725 155.495 394.147 157.816C390.125 161.436 386.194 165.182 381.947 168.516C378.845 170.951 377.631 174.087 377.371 177.705C376.152 194.656 374.996 211.611 373.889 228.57C372.465 250.396 371.075 272.225 369.752 294.058C369.494 298.308 368.122 302.864 370.116 306.785C376.701 319.735 387.432 327.996 400.905 332.896C402.976 333.649 404.868 333.203 406.898 332.663C415.353 330.415 423.822 328.208 432.329 326.169C464.187 318.536 495.963 310.508 527.994 303.689C536.924 301.788 540.927 296.753 544.192 289.601C544.655 288.585 544.816 287.375 545.453 286.502C548.882 281.796 547.486 278.071 543.779 274.16C535.173 265.076 525.609 257.04 516.578 248.425C511.111 243.209 508.33 243.931 506.231 251.166C503.886 259.249 501.487 267.32 499.368 275.464C498.206 279.93 496.22 282.761 491.134 283.015C485.758 283.283 480.415 284.202 475.056 284.826C458.074 286.804 441.059 288.543 424.118 290.83C412.185 292.44 412.182 295.674 411.627 280.725C410.772 257.717 410.189 234.698 409.437 211.685C409.12 201.993 409.399 201.476 418.46 197.412C421.013 196.267 423.525 195.028 426.782 193.434ZM368.583 254.388C369.205 246.005 369.831 237.622 370.45 229.238C371.66 212.859 372.906 196.483 374.034 180.098C374.215 177.462 375.445 173.851 371.691 172.919C367.64 171.914 362.895 170.434 359.32 173.42C350.706 180.616 345.477 190.662 343.639 201.174C339.722 223.576 338.25 246.358 336.434 269.055C334.797 289.523 333.039 309.983 331.175 330.432C329.922 344.18 328.246 357.889 327.085 371.644C326.814 374.85 325.892 378.492 328.06 381.411C328.582 382.115 329.78 382.607 330.333 381.927V381.927C340.465 369.471 350.595 357.014 360.643 344.489C361.402 343.543 361.837 342.128 361.94 340.89C362.746 331.208 363.601 321.526 364.123 311.826C365.139 292.98 366.771 274.187 368.583 254.388ZM248.238 393.955C243.457 403.892 238.672 413.826 233.898 423.766C232.598 426.474 231.527 429.167 231.915 432.354C233.423 444.736 234.435 457.191 236.348 469.506C236.76 472.157 236.747 474.91 236.927 477.714C237.231 482.446 242.608 483.481 245.805 479.979C256.725 468.016 267.288 456.447 277.843 444.87C279.24 443.338 279.09 441.465 278.935 439.561C278.223 430.825 277.436 422.092 276.908 413.344C275.68 393.016 274.593 372.68 273.422 352.349V352.349C273.24 349.199 269.477 350.413 268.092 353.249C261.621 366.504 255.069 379.928 248.238 393.955ZM420.721 280.62C436.238 263.497 484.078 204.014 495.438 188.046C497.054 185.774 496.051 183.798 493.35 184.493C492.546 184.7 491.723 184.852 490.857 184.737C476.435 182.819 462.88 187.703 449.501 191.632C439.802 194.48 431.032 200.449 421.738 204.79C418.348 206.373 417.356 208.686 417.24 212.259C416.738 227.783 415.848 243.294 415.366 258.818C415.166 265.27 415.227 271.731 415.278 278.641C415.299 281.513 418.891 282.833 420.721 280.62V280.62ZM317.55 441.393C310.891 442.028 304.236 442.713 297.572 443.285C288.325 444.079 278.724 444.015 273.839 454.302C273.537 454.938 272.82 455.375 272.297 455.905C263.122 465.203 254.595 475.088 246.111 485.012C245.065 486.235 243.44 487.451 244.458 489.371C245.278 490.918 247.002 490.67 248.465 490.79C256.618 491.46 264.761 492.448 272.927 492.69C279.896 492.897 287.401 494.585 293.707 490.727C319.598 474.888 345.27 458.685 370.995 442.573C371.827 442.051 372.714 441.572 373.56 441.034C376.124 439.404 375.141 436.033 372.125 436.398C371.855 436.43 371.589 436.462 371.326 436.485C353.733 438.003 336.148 439.615 317.55 441.393ZM458.18 360.922C465.43 359.25 472.707 357.684 479.921 355.863C483.685 354.913 487.316 353.659 490.74 351.544C494.683 349.108 494.408 346.358 492.536 343.058C489.858 338.337 485.602 336.909 478.939 338.548C459.067 343.436 438.846 345.7 418.56 343.419C405.508 341.952 393.081 344.136 380.458 345.972C378.217 346.297 376.285 347.53 374.653 349.151C368.314 355.448 361.857 361.631 355.678 368.082C353.289 370.576 351.758 373.424 351.008 376.813C350.128 380.789 354.09 383.749 358.079 382.934C391.649 376.07 424.627 369.096 458.18 360.922ZM184.61 526.788C182.3 531.695 179.902 536.562 177.72 541.525C176.758 543.714 174.585 546.014 178.066 548.285C181.328 550.413 182.82 548.03 184.631 546.253C201.983 529.227 217.653 510.625 234.226 492.869C235.806 491.176 236.7 489.424 236.206 486.823C234.29 476.736 232.944 466.532 230.755 456.51C230.435 455.047 230.224 453.528 229.978 451.978C229.187 447.005 223.554 446.963 221.24 451.435C208.303 476.437 196.574 501.301 184.61 526.788ZM390.417 332.747C390.09 331.925 389.465 331.265 388.751 330.743C383.862 327.16 378.516 324.184 374.322 319.677C371.557 316.705 369.551 317.432 368.273 321.083C366.503 326.136 367.592 331.45 366.885 336.611C366.324 340.705 368.415 342.004 372.27 341.047C377.141 339.837 382.09 338.916 386.902 337.512C389.034 336.89 391.754 336.105 390.417 332.747ZM376.931 161.433C377.54 163.269 379.093 165.112 380.928 164.498C382.918 163.832 384.042 161.512 385.625 160.178C387.708 158.422 389.23 155.941 387.678 153.267C386.195 150.714 383.239 150.541 380.655 151.032C377.512 151.628 375.917 154.064 376.027 157.155C376.076 158.537 376.425 159.908 376.931 161.433Z" fill="#24273A" stroke="#24273A" stroke-width="4.47724" stroke-linejoin="round"/>
</g>
</g>
<defs>
<clipPath id="clip0_25_2">
<rect width="719" height="719" fill="white"/>
</clipPath>
</defs>
</svg>
